<?xml version="1.0" standalone="no"?>
<!DOCTYPE svg PUBLIC "-//W3C//DTD SVG 20010904//EN"
 "http://www.w3.org/TR/2001/REC-SVG-20010904/DTD/svg10.dtd">
<svg version="1.0" xmlns="http://www.w3.org/2000/svg"
 width="700.000000pt" height="700.000000pt" viewBox="0 0 700.000000 700.000000"
 preserveAspectRatio="xMidYMid meet">
<metadata>
Created by potrace 1.14, written by Peter Selinger 2001-2017
</metadata>
<g transform="translate(0.000000,700.000000) scale(0.100000,-0.100000)"
fill="#000000" stroke="none">
<path d="M3230 6989 c-636 -52 -1259 -279 -1765 -643 -224 -161 -522 -441
-681 -641 -438 -548 -685 -1145 -766 -1850 -16 -142 -16 -568 0 -710 40 -346
113 -640 234 -945 377 -949 1176 -1700 2148 -2020 1138 -375 2364 -151 3305
603 130 104 410 384 511 512 438 549 685 1148 766 1850 7 61 12 220 12 355 0
135 -5 295 -12 355 -81 702 -330 1304 -766 1850 -102 128 -382 408 -511 512
-528 423 -1136 680 -1795 758 -166 19 -525 27 -680 14z m136 -1849 c895 -52
1650 -232 2289 -546 280 -137 358 -200 396 -319 33 -105 0 -241 -77 -320 -67
-70 -140 -100 -239 -100 -89 0 -76 -5 -315 122 -463 248 -1091 416 -1830 490
-253 25 -954 25 -1195 0 -325 -34 -602 -84 -830 -148 -181 -52 -291 -31 -392
73 -63 65 -88 127 -88 223 0 97 29 167 96 233 61 60 100 76 320 131 339 86
752 144 1164 164 157 8 541 6 701 -3z m-7 -1215 c657 -54 1288 -226 1817 -495
339 -173 401 -235 392 -394 -4 -82 -24 -129 -75 -180 -54 -54 -116 -80 -188
-80 -70 0 -100 11 -203 72 -391 229 -911 406 -1439 487 -290 44 -380 50 -773
50 -328 -1 -396 -4 -542 -23 -220 -29 -347 -54 -558 -108 -201 -53 -246 -54
-332 -7 -87 47 -136 132 -137 238 -2 128 80 227 223 270 531 161 1178 222
1815 170z m-38 -1135 c562 -44 1093 -195 1545 -441 203 -110 241 -143 265
-232 24 -90 -26 -200 -111 -245 -37 -19 -56 -23 -110 -20 -59 3 -76 10 -185
73 -511 294 -1085 435 -1769 435 -383 0 -754 -41 -1140 -126 -60 -13 -121 -24
-135 -24 -94 0 -188 76 -211 169 -22 93 27 203 110 246 68 35 631 132 900 155
69 5 141 12 160 14 87 8 559 5 681 -4z"/>
</g>
</svg>
